<svg id="Capa_1" enable-background="new 0 0 511.999 511.999" height="512" viewBox="0 0 511.999 511.999" width="512" xmlns="http://www.w3.org/2000/svg"><path d="m391.554 457.409c-4.142 0-7.5 3.358-7.5 7.5v39.59c0 4.142 3.358 7.5 7.5 7.5s7.5-3.358 7.5-7.5v-39.59c0-4.142-3.358-7.5-7.5-7.5z"/><path d="m500.148 223.596c-15.78-15.78-41.456-15.78-57.236 0l-22.488 22.488 17.542-54.713c3.304-10.299 2.395-21.271-2.56-30.893-4.95-9.612-13.341-16.715-23.617-19.998-10.288-3.307-21.251-2.405-30.868 2.542-9.621 4.948-16.734 13.344-20.028 23.637l-16.479 51.368v-56.027c0-11.045-4.551-21.846-12.487-29.633-7.814-7.668-18.022-11.782-28.774-11.576-21.884.44-39.689 18.594-39.689 40.469l.001 6.913c-5.456 2.013-10.426 5.176-14.594 9.344l-.637.637-.939-2.617c-3.062-8.537-8.76-15.636-16.278-20.43-1.332-14.101-9.991-26.665-22.994-32.797-9.772-4.625-20.76-5.161-30.94-1.509-10.173 3.649-18.319 11.04-22.941 20.817l-34.534 73.168c-.379.807-.769 1.614-1.167 2.421-1.835 3.714-.311 8.211 3.402 10.046 1.068.528 2.201.777 3.316.777 2.764 0 5.423-1.534 6.73-4.18.441-.893.872-1.787 1.289-2.671l34.528-73.156c2.908-6.153 8.037-10.807 14.441-13.104 6.404-2.296 13.314-1.96 19.469.953 5.782 2.726 10.197 7.472 12.594 13.146-6.225-.781-12.59-.103-18.667 2.08-21.001 7.531-31.965 30.75-24.438 51.762l11.684 32.584-7.837 16.616c-1.767 3.747-.163 8.216 3.583 9.983 1.034.488 2.123.719 3.195.719 2.812 0 5.509-1.59 6.788-4.302l1.434-3.04 8.465 23.607c6.687 18.595 11.507 37.858 14.387 57.458l-42.328-29.929c-13.165-9.314-30.033-9.628-43.246-2.213-10.207-12.17-22.334-19.71-30.614-23.858 7.431-9.514 14.34-19.469 20.59-29.709 2.158-3.536 1.041-8.151-2.495-10.309s-8.151-1.04-10.309 2.495c-4.717 7.73-9.825 15.294-15.266 22.611l-8.76-51.089c-1.823-10.653-7.69-19.958-16.519-26.201-8.829-6.242-19.561-8.672-30.219-6.846-21.983 3.763-36.808 24.724-33.045 46.73l22.651 132.035c.998 5.792 3.2 11.215 6.462 15.99l-27.494 27.494c-2.929 2.929-2.929 7.678 0 10.606 1.464 1.465 3.383 2.197 5.303 2.197 1.919 0 3.839-.732 5.303-2.197l32.3-32.3c2.925-2.925 2.93-7.665.011-10.596-3.746-3.76-6.202-8.512-7.102-13.735l-22.649-132.026c-2.369-13.851 6.958-27.045 20.795-29.414 6.711-1.151 13.468.379 19.026 4.309 5.555 3.928 9.247 9.782 10.394 16.486l11.61 67.71c.473 2.76 2.449 5 5.094 5.854l-.008.024c.208.067 19.233 6.407 33.464 23.396-.586.717-1.158 1.45-1.702 2.217-12.886 18.216-8.544 43.527 9.683 56.425l82.288 58.183c-12.56 4.376-24.852 9.609-36.674 15.628l-37.425 19.049c-.703.358-1.345.824-1.902 1.382l-32.301 32.312c-2.928 2.929-2.928 7.678.002 10.606 1.464 1.464 3.383 2.196 5.302 2.196s3.84-.733 5.304-2.198l31.459-31.47 36.365-18.509c14.442-7.353 29.624-13.467 45.136-18.2l11.823 8.359c4.799 3.396 10.184 5.671 15.862 6.731v47.787c0 4.142 3.358 7.5 7.5 7.5s7.5-3.358 7.5-7.5v-54.6c0-1.991-.792-3.9-2.201-5.307-1.406-1.404-3.312-2.193-5.299-2.193-.016 0-.032 0-.048 0-5.274 0-10.338-1.612-14.651-4.664l-109.377-77.338c-11.474-8.12-14.21-24.052-6.102-35.513 8.12-11.465 24.053-14.192 35.52-6.081l56.09 39.661c2.388 1.688 5.541 1.834 8.075.374 2.535-1.46 3.989-4.261 3.725-7.174-2.405-26.565-8.182-52.711-17.17-77.706l-27.309-76.157c-4.737-13.225 2.162-27.841 15.384-32.582 6.407-2.3 13.319-1.967 19.466.937 6.148 2.905 10.8 8.035 13.1 14.449l30.74 85.64c1.232 3.431 4.75 5.484 8.345 4.855 3.592-.625 6.214-3.743 6.214-7.389l-.01-102.449c0-13.768 11.211-25.194 24.982-25.471 6.691-.12 13.059 2.461 17.975 7.285 5.08 4.984 7.993 11.882 7.993 18.926v103.96c0 3.694 2.69 6.839 6.341 7.41 3.647.574 7.172-1.601 8.301-5.119l31.122-97.015c2.074-6.479 6.55-11.761 12.604-14.875 6.051-3.111 12.947-3.68 19.43-1.597 6.468 2.066 11.745 6.534 14.858 12.581 3.119 6.057 3.692 12.962 1.612 19.444l-27 84.21c-1.057 3.297.28 6.889 3.236 8.692 2.955 1.803 6.761 1.348 9.209-1.099l44.39-44.39c9.931-9.931 26.091-9.933 36.023 0 9.937 9.938 9.941 26.102.01 36.034l-20.33 20.33c-32.695 32.695-57.53 73.185-71.82 117.094l-8.34 25.66c-1.28 3.939.875 8.171 4.814 9.451 3.941 1.282 8.171-.875 9.451-4.814l8.339-25.658c13.561-41.669 37.13-80.096 68.162-111.127l20.33-20.33c15.781-15.78 15.776-41.461-.009-57.247zm-246.311-29.831 5.641-5.641c1.225-1.225 2.566-2.302 3.989-3.244l.004 35.723z"/><path d="m110.773 101.737c1.273 2.728 3.978 4.33 6.801 4.33 1.062 0 2.141-.227 3.167-.705 3.753-1.752 5.376-6.214 3.625-9.968l-27.367-58.642c-1.751-3.754-6.214-5.377-9.968-3.625-3.753 1.752-5.376 6.214-3.625 9.968z"/><path d="m174.908 91.731c4.142 0 7.5-3.358 7.5-7.5v-76.731c0-4.142-3.358-7.5-7.5-7.5s-7.5 3.358-7.5 7.5v76.731c0 4.142 3.358 7.5 7.5 7.5z"/><path d="m239.739 95.043c.958.407 1.952.599 2.93.599 2.918 0 5.693-1.714 6.906-4.568l22.154-52.126c1.62-3.812-.157-8.216-3.969-9.836-3.813-1.62-8.216.157-9.836 3.969l-22.154 52.126c-1.62 3.812.157 8.216 3.969 9.836z"/><path d="m40.596 119.247 35.186 22.154c1.241.782 2.623 1.154 3.989 1.154 2.492 0 4.929-1.241 6.354-3.505 2.207-3.505 1.155-8.136-2.351-10.343l-35.186-22.154c-3.506-2.208-8.136-1.154-10.343 2.351s-1.155 8.136 2.351 10.343z"/></svg>