<?xml version="1.0" encoding="iso-8859-1"?>
<!-- Generator: Adobe Illustrator 19.0.0, SVG Export Plug-In . SVG Version: 6.00 Build 0)  -->
<svg version="1.1" id="Capa_1" xmlns="http://www.w3.org/2000/svg" xmlns:xlink="http://www.w3.org/1999/xlink" x="0px" y="0px"
	 viewBox="0 0 512.001 512.001" style="enable-background:new 0 0 512.001 512.001;" xml:space="preserve">
<path style="fill:#006DF0;" d="M181.027,318.545c10.497-10.749,18.309-24.13,22.354-39.061l-0.004-0.001l127.61,72.986
	c16.25-16.633,38.925-26.963,64.016-26.963c49.428,0,89.497,40.069,89.497,89.497S444.43,504.5,395.003,504.5
	s-89.497-40.069-89.497-89.497c0-8.127,1.09-15.998,3.12-23.483l-127.609-72.986L181.027,318.545z"/>
<g>
	<polygon style="fill:#004FAC;" points="203.377,279.483 203.381,279.485 203.381,279.484 	"/>
	<polygon style="fill:#004FAC;" points="181.027,318.545 181.03,318.542 181.017,318.535 	"/>
	<path style="fill:#004FAC;" d="M345.506,415.003c0-8.127,1.09-15.998,3.12-23.483l-127.596-72.978
		c-0.001,0.001-0.002,0.002-0.003,0.003l-0.01-0.01l0.013,0.007c5.895-6.037,10.943-12.905,14.952-20.411l-32.601-18.646
		c-4.045,14.929-11.856,28.309-22.351,39.057l127.596,72.978c-2.03,7.484-3.12,15.356-3.12,23.483
		c0,49.428,40.069,89.497,89.497,89.497c6.876,0,13.569-0.778,20-2.246C375.204,493.169,345.506,457.555,345.506,415.003z"/>
</g>
<path style="fill:#57A4FF;" d="M181.027,318.545c10.497-10.749,18.309-24.13,22.354-39.061l-0.004-0.001
	c2.029-7.484,3.119-15.354,3.119-23.48c0-8.128-1.09-16-3.12-23.485l127.612-72.987c16.25,16.633,38.925,26.962,64.016,26.962
	c49.428,0,89.497-40.069,89.497-89.496S444.43,7.5,395.003,7.5s-89.497,40.069-89.497,89.497c0,8.127,1.09,15.998,3.12,23.483
	l-127.613,72.988c-16.25-16.632-38.924-26.961-64.014-26.961c-49.428,0-89.497,40.069-89.497,89.497s40.07,89.496,89.497,89.496
	c25.092,0,47.767-10.33,64.018-26.965L181.027,318.545z"/>
<g>
	<path style="fill:#006DF0;" d="M204.404,180.089c6.06,3.794,11.637,8.289,16.609,13.378l127.613-72.988
		c-2.03-7.484-3.12-15.356-3.12-23.483c0-42.552,29.698-78.166,69.497-87.251c-6.431-1.468-13.124-2.246-20-2.246
		c-49.428,0-89.497,40.069-89.497,89.497c0,8.127,1.09,15.998,3.12,23.483L204.404,180.089z"/>
	<path style="fill:#006DF0;" d="M67.503,256.003c0-42.549,29.693-78.161,69.488-87.249c-6.428-1.468-13.118-2.247-19.992-2.247
		c-49.428,0-89.497,40.069-89.497,89.497s40.07,89.496,89.497,89.496c6.873,0,13.563-0.78,19.992-2.247
		C97.196,334.164,67.503,298.552,67.503,256.003z"/>
</g>
<g>
	<path style="fill:#FFFFFF;" d="M435.748,361.813c-4.477-3.434-9.372-6.291-14.548-8.493l-5.87,13.804
		c4.015,1.708,7.813,3.925,11.29,6.591L435.748,361.813z"/>
	<path style="fill:#FFFFFF;" d="M328.003,415.003h15c0-25.012,17.81-46.506,42.349-51.107l-2.765-14.743
		C350.959,355.083,328.003,382.778,328.003,415.003z"/>
	<path style="fill:#FFFFFF;" d="M410.507,349.808c-5.45-1.291-11.119-1.887-16.734-1.794l0.26,14.998
		c4.385-0.078,8.782,0.388,13.015,1.392L410.507,349.808z"/>
</g>
<path style="fill:#1D1D1F;" d="M404.2,466.194l2.633,14.768c22.111-3.942,40.669-18.625,49.644-39.274l-13.757-5.979
	C435.752,451.739,421.353,463.136,404.2,466.194z"/>
<g>
	<path style="fill:#FFFFFF;" d="M160.197,202.939c-4.477-3.434-9.372-6.291-14.548-8.493l-5.87,13.804
		c4.015,1.708,7.813,3.925,11.29,6.591L160.197,202.939z"/>
	<path style="fill:#FFFFFF;" d="M52.452,256.129h15c0-25.012,17.81-46.506,42.349-51.107l-2.765-14.743
		C75.408,196.209,52.452,223.904,52.452,256.129z"/>
	<path style="fill:#FFFFFF;" d="M134.956,190.934c-5.45-1.292-11.115-1.892-16.734-1.794l0.26,14.998
		c4.385-0.082,8.782,0.388,13.015,1.392L134.956,190.934z"/>
</g>
<g>
	<path style="fill:#1D1D1F;" d="M128.648,307.32l2.633,14.768c22.111-3.942,40.67-18.625,49.644-39.274l-13.757-5.979
		C160.202,292.865,145.801,304.262,128.648,307.32z"/>
	<path style="fill:#1D1D1F;" d="M395.003,318.007c-24.373,0-47.298,8.893-65.173,25.161L211.974,275.76
		c1.343-6.482,2.021-13.104,2.021-19.757c0-6.655-0.679-13.279-2.023-19.763l117.857-67.408
		c17.875,16.268,40.8,25.161,65.173,25.161c53.484,0,96.996-43.513,96.996-96.997S448.487,0,395.003,0s-96.997,43.513-96.997,96.997
		c0,6.654,0.679,13.278,2.022,19.76L182.17,184.165c-17.875-16.267-40.799-25.158-65.171-25.158
		c-53.484,0-96.996,43.512-96.996,96.996S63.515,353,116.999,353c24.374,0,47.3-8.893,65.175-25.162l117.854,67.406
		c-1.343,6.482-2.022,13.106-2.022,19.76c0,53.484,43.513,96.997,96.997,96.997s96.996-43.513,96.996-96.997
		S448.487,318.007,395.003,318.007z M395.003,497c-45.213,0-81.997-36.784-81.997-81.997c0-7.288,0.961-14.528,2.858-21.52
		l1.518-5.595L192.73,316.594c3.047-3.804,5.815-7.825,8.258-12.043l-12.98-7.518c-3.442,5.943-7.633,11.436-12.451,16.352
		C160.004,329.258,139.214,338,116.999,338c-45.213,0-81.996-36.784-81.996-81.997s36.783-81.996,81.996-81.996
		c22.257,0,43.085,8.772,58.649,24.702l4.054,4.149l124.649-71.293c1.929,5.056,4.283,9.951,7.04,14.629l12.922-7.618
		c-3.635-6.166-6.437-12.779-8.34-19.657l-0.109-0.402c-1.896-6.992-2.858-14.232-2.858-21.52C313.006,51.784,349.79,15,395.003,15
		s81.996,36.784,81.996,81.997s-36.783,81.997-81.996,81.997c-22.258,0-43.087-8.773-58.651-24.704l-4.053-4.149L194.62,228.887
		l1.518,5.595c1.896,6.993,2.858,14.234,2.858,21.522c0,7.286-0.961,14.525-2.857,21.518l-1.517,5.595l124.647,71.291
		c-3.6,4.494-6.801,9.295-9.55,14.357l13.181,7.16c3.55-6.536,7.984-12.563,13.173-17.926l0.281-0.287
		c15.564-15.931,36.393-24.704,58.651-24.704c45.213,0,81.996,36.784,81.996,81.997S440.216,497,395.003,497z"/>
</g>
<g>
	<path style="fill:#FFFFFF;" d="M438.201,44.269c-4.478-3.434-9.372-6.291-14.548-8.492l-5.87,13.804
		c4.015,1.707,7.813,3.925,11.289,6.591L438.201,44.269z"/>
	<path style="fill:#FFFFFF;" d="M409.5,46.86l3.46-14.596c-5.449-1.291-11.112-1.884-16.735-1.794l0.261,14.998
		C400.853,45.39,405.268,45.856,409.5,46.86z"/>
	<path style="fill:#FFFFFF;" d="M387.804,46.352l-2.765-14.743c-31.628,5.93-54.584,33.625-54.584,65.851h15
		C345.455,72.447,363.265,50.953,387.804,46.352z"/>
</g>
<path style="fill:#1D1D1F;" d="M406.652,148.65l2.633,14.768c22.111-3.942,40.67-18.625,49.644-39.274l-13.757-5.979
	C438.205,134.195,423.805,145.592,406.652,148.65z"/>
<g>
</g>
<g>
</g>
<g>
</g>
<g>
</g>
<g>
</g>
<g>
</g>
<g>
</g>
<g>
</g>
<g>
</g>
<g>
</g>
<g>
</g>
<g>
</g>
<g>
</g>
<g>
</g>
<g>
</g>
</svg>
