<?xml version="1.0" encoding="UTF-8" standalone="no"?>
<svg
   xmlns:dc="http://purl.org/dc/elements/1.1/"
   xmlns:cc="http://creativecommons.org/ns#"
   xmlns:rdf="http://www.w3.org/1999/02/22-rdf-syntax-ns#"
   xmlns:svg="http://www.w3.org/2000/svg"
   xmlns="http://www.w3.org/2000/svg"
   xmlns:sodipodi="http://sodipodi.sourceforge.net/DTD/sodipodi-0.dtd"
   xmlns:inkscape="http://www.inkscape.org/namespaces/inkscape"
   fill="#26e07f"
   viewBox="0 0 50 50"
   width="30px"
   height="30px"
   version="1.1"
   id="svg4"
   sodipodi:docname="whatsapp-logo.svg"
   inkscape:version="0.92.3 (2405546, 2018-03-11)">
  <metadata
     id="metadata10">
    <rdf:RDF>
      <cc:Work
         rdf:about="">
        <dc:format>image/svg+xml</dc:format>
        <dc:type
           rdf:resource="http://purl.org/dc/dcmitype/StillImage" />
      </cc:Work>
    </rdf:RDF>
  </metadata>
  <defs
     id="defs8" />
  <sodipodi:namedview
     pagecolor="#ffffff"
     bordercolor="#666666"
     borderopacity="1"
     objecttolerance="10"
     gridtolerance="10"
     guidetolerance="10"
     inkscape:pageopacity="0"
     inkscape:pageshadow="2"
     inkscape:window-width="1920"
     inkscape:window-height="1027"
     id="namedview6"
     showgrid="false"
     inkscape:zoom="22.250293"
     inkscape:cx="6.8670528"
     inkscape:cy="11.741541"
     inkscape:window-x="-8"
     inkscape:window-y="-8"
     inkscape:window-maximized="1"
     inkscape:current-layer="svg4" />
  <path
     d="m 25.012457,0.30353765 c -13.554994,0 -24.58325475,11.02829435 -24.58325475,24.58333035 0,4.232608 1.09342025,8.394672 3.16696445,12.067208 L 0.46874925,48.112771 c -0.1026082,0.366611 -0.0032,0.759945 0.2618651,1.0325 0.20414787,0.210563 0.48204545,0.324927 0.76742495,0.324927 0.085507,0 0.1720827,-0.0107 0.2565209,-0.031 L 13.400611,46.554407 c 3.55602,1.908949 7.560953,2.915797 11.611846,2.915797 13.554993,0 24.583254,-11.028298 24.583254,-24.583331 0,-13.555036 -11.028261,-24.58333025 -24.583254,-24.58333025 z M 37.378902,33.561576 c -0.525866,1.455762 -3.048321,2.784329 -4.260385,2.962828 -1.088076,0.159256 -2.464738,0.227661 -3.976073,-0.246903 -0.915993,-0.288587 -2.091715,-0.671232 -3.597706,-1.313605 -6.330721,-2.699891 -10.464985,-8.994292 -10.78136,-9.410072 -0.315308,-0.415779 -2.576966,-3.378605 -2.576966,-6.445107 0,-3.066506 1.629977,-4.574638 2.209285,-5.198841 0.57931,-0.624204 1.262297,-0.780254 1.68342,-0.780254 0.42112,0 0.841173,0.0053 1.209923,0.02245 0.387987,0.01924 0.90851,-0.146431 1.420484,1.069909 0.525868,1.248405 1.788166,4.31491 1.944215,4.628078 0.158188,0.312102 0.262935,0.676578 0.05343,1.092356 -0.209491,0.415779 -0.314237,0.675508 -0.630613,1.039983 -0.316377,0.364474 -0.662679,0.812318 -0.946989,1.092354 -0.316377,0.311033 -0.644509,0.647717 -0.27683,1.27192 0.367681,0.624204 1.634252,2.664619 3.511131,4.317047 2.410228,2.122717 4.444224,2.781124 5.074838,3.093223 0.630614,0.312104 0.999362,0.259731 1.367043,-0.156048 0.367679,-0.41685 1.577604,-1.820238 1.997657,-2.443372 0.420052,-0.623133 0.841175,-0.520524 1.420483,-0.3121 0.579312,0.207354 3.682145,1.71442 4.31276,2.026523 0.630615,0.312099 1.051736,0.468151 1.209924,0.727878 0.158187,0.258661 0.158187,1.507067 -0.367681,2.961757 z"
     id="path2"
     inkscape:connector-curvature="0"
     style="stroke-width:1.06883872" />
</svg>
